<?xml version="1.0" encoding="utf-8"?>
<!-- Generator: Adobe Illustrator 16.0.0, SVG Export Plug-In . SVG Version: 6.00 Build 0)  -->
<!DOCTYPE svg PUBLIC "-//W3C//DTD SVG 1.1//EN" "http://www.w3.org/Graphics/SVG/1.1/DTD/svg11.dtd">
<svg version="1.1" id="Layer_1" xmlns="http://www.w3.org/2000/svg" xmlns:xlink="http://www.w3.org/1999/xlink" x="0px" y="0px"
	 width="40px" height="40px" viewBox="0 0 40 40" enable-background="new 0 0 40 40" xml:space="preserve">
<g>
	<path d="M33.92,16.536c0,0.619-0.225,1.152-0.672,1.6L21.633,29.752c-0.449,0.471-0.992,0.704-1.633,0.704
		c-0.64,0-1.174-0.233-1.6-0.704L6.784,18.136c-0.448-0.427-0.672-0.96-0.672-1.6c0-0.64,0.224-1.184,0.672-1.632l1.312-1.344
		c0.469-0.426,1.013-0.64,1.632-0.64c0.618,0,1.152,0.214,1.6,0.64L20,22.232l8.672-8.672c0.447-0.426,0.986-0.64,1.615-0.64
		s1.168,0.214,1.617,0.64l1.344,1.344C33.695,15.374,33.92,15.917,33.92,16.536z"/>
</g>
</svg>
