<?xml version="1.0" encoding="utf-8"?>
<!-- Generator: Adobe Illustrator 16.0.0, SVG Export Plug-In . SVG Version: 6.00 Build 0)  -->
<!DOCTYPE svg PUBLIC "-//W3C//DTD SVG 1.1//EN" "http://www.w3.org/Graphics/SVG/1.1/DTD/svg11.dtd">
<svg version="1.1" id="Layer_1" xmlns="http://www.w3.org/2000/svg" xmlns:xlink="http://www.w3.org/1999/xlink" x="0px" y="0px"
	 width="40px" height="40px" viewBox="0 0 40 40" enable-background="new 0 0 40 40" xml:space="preserve">
<g>
	<path d="M34.864,32.594c0,0.619-0.234,1.152-0.704,1.6c-0.469,0.449-1.013,0.672-1.632,0.672s-1.142-0.223-1.567-0.672
		l-6.112-6.111c-2.134,1.473-4.512,2.207-7.136,2.207c-1.707,0-3.339-0.33-4.896-0.99c-1.558-0.662-2.891-1.559-4-2.689
		c-1.109-1.131-2.005-2.463-2.688-4c-0.683-1.535-1.013-3.167-0.992-4.896c0.021-1.728,0.352-3.349,0.992-4.864
		s1.536-2.859,2.688-4.032c1.152-1.173,2.485-2.069,4-2.688c1.515-0.619,3.146-0.949,4.896-0.992
		c1.749-0.042,3.371,0.288,4.864,0.992s2.837,1.6,4.032,2.688c1.194,1.088,2.091,2.432,2.688,4.032
		c0.597,1.6,0.928,3.221,0.991,4.864c0,2.624-0.735,5.003-2.208,7.136l6.112,6.113C34.641,31.41,34.864,31.953,34.864,32.594z
		 M25.713,17.714c0-2.197-0.79-4.074-2.368-5.632c-1.579-1.557-3.456-2.347-5.632-2.368c-2.176-0.021-4.064,0.768-5.664,2.368
		c-1.6,1.6-2.379,3.478-2.336,5.632c0.042,2.155,0.821,4.043,2.336,5.663c1.515,1.623,3.403,2.4,5.664,2.338
		c2.261-0.064,4.138-0.844,5.632-2.338C24.838,21.885,25.627,19.997,25.713,17.714z"/>
</g>
</svg>
